<?xml version="1.0" encoding="UTF-8" standalone="no"?>
<!DOCTYPE svg PUBLIC "-//W3C//DTD SVG 1.1//EN"
 "http://www.w3.org/Graphics/SVG/1.1/DTD/svg11.dtd">
<!-- Generated by graphviz version 2.40.1 (20161225.0304)
 -->
<!-- Title: signal_libs Pages: 1 -->
<svg width="1387pt" height="904pt"
 viewBox="0.00 0.00 1387.02 904.00" xmlns="http://www.w3.org/2000/svg" xmlns:xlink="http://www.w3.org/1999/xlink">
<g id="graph0" class="graph" transform="scale(1 1) rotate(0) translate(4 900)">
<title>signal_libs</title>
<polygon fill="#ffffff" stroke="transparent" points="-4,4 -4,-900 1383.0216,-900 1383.0216,4 -4,4"/>
<g id="clust1" class="cluster">
<title>cluster_legend</title>
<polygon fill="none" stroke="#000000" points="73.4048,-8 73.4048,-88 618.0778,-88 618.0778,-8 73.4048,-8"/>
<text text-anchor="middle" x="345.7413" y="-69.6" font-family="sans-serif" font-size="18.00" fill="#000000">Legend</text>
</g>
<g id="clust2" class="cluster">
<title>cluster_invis</title>
</g>
<!-- library -->
<g id="node1" class="node">
<title>library</title>
<ellipse fill="#cbd5e8" stroke="#000000" cx="126.5721" cy="-34" rx="45.3353" ry="18"/>
<text text-anchor="middle" x="126.5721" y="-30.5" font-family="sans-serif" font-size="15.00" fill="#000000">library</text>
</g>
<!-- bridge -->
<g id="node2" class="node">
<title>bridge</title>
<polygon fill="#fdcdac" stroke="#000000" points="432.671,-34 406.516,-52 354.206,-52 328.051,-34 354.206,-16 406.516,-16 432.671,-34"/>
<text text-anchor="middle" x="380.361" y="-30.5" font-family="sans-serif" font-size="15.00" fill="#000000">bridge</text>
</g>
<!-- library&#45;&gt;bridge -->
<!-- client -->
<g id="node3" class="node">
<title>client</title>
<polygon fill="#b3e2cd" stroke="#000000" points="610.0778,-52 551.0778,-52 551.0778,-16 610.0778,-16 610.0778,-52"/>
<text text-anchor="middle" x="580.5778" y="-30.5" font-family="sans-serif" font-size="15.00" fill="#000000">client</text>
</g>
<!-- bridge&#45;&gt;client -->
<!-- a -->
<!-- b -->
<!-- a&#45;&gt;b -->
<!-- c -->
<!-- b&#45;&gt;c -->
<!-- proto_java -->
<g id="node7" class="node">
<title>proto_java</title>
<ellipse fill="#cbd5e8" stroke="#000000" cx="126.5721" cy="-672" rx="104.5" ry="26.7407"/>
<text text-anchor="start" x="87.0721" y="-676" font-family="sans-serif" font-weight="bold" font-size="15.00" fill="#000000">libsignal&#45;</text>
<text text-anchor="start" x="69.5721" y="-661" font-family="sans-serif" font-weight="bold" font-size="15.00" fill="#000000">protocol&#45;java</text>
</g>
<!-- serv_java -->
<g id="node10" class="node">
<title>serv_java</title>
<ellipse fill="#cbd5e8" stroke="#000000" cx="380.361" cy="-672" rx="84.7059" ry="26.7407"/>
<text text-anchor="start" x="340.861" y="-676" font-family="sans-serif" font-weight="bold" font-size="15.00" fill="#000000">libsignal&#45;</text>
<text text-anchor="start" x="328.361" y="-661" font-family="sans-serif" font-weight="bold" font-size="15.00" fill="#000000">service&#45;java</text>
</g>
<!-- proto_java&#45;&gt;serv_java -->
<g id="edge5" class="edge">
<title>proto_java&#45;&gt;serv_java</title>
<path fill="none" stroke="#000000" d="M231.263,-672C252.5634,-672 274.7253,-672 295.2463,-672"/>
</g>
<!-- proto_javascript -->
<g id="node8" class="node">
<title>proto_javascript</title>
<ellipse fill="#cbd5e8" stroke="#000000" cx="126.5721" cy="-744" rx="126.6443" ry="26.7407"/>
<text text-anchor="start" x="87.0721" y="-748" font-family="sans-serif" font-weight="bold" font-size="15.00" fill="#000000">libsignal&#45;</text>
<text text-anchor="start" x="45.0721" y="-733" font-family="sans-serif" font-weight="bold" font-size="15.00" fill="#000000">protocol&#45;javascript</text>
</g>
<!-- proto_c -->
<g id="node9" class="node">
<title>proto_c</title>
<ellipse fill="#cbd5e8" stroke="#000000" cx="126.5721" cy="-816" rx="104.5" ry="26.7407"/>
<text text-anchor="start" x="87.0721" y="-820" font-family="sans-serif" font-weight="bold" font-size="15.00" fill="#000000">libsignal&#45;</text>
<text text-anchor="start" x="83.0721" y="-805" font-family="sans-serif" font-weight="bold" font-size="15.00" fill="#000000">protocol&#45;c</text>
</g>
<!-- serv_java_fork -->
<g id="node12" class="node">
<title>serv_java_fork</title>
<ellipse fill="#cbd5e8" stroke="#000000" cx="380.361" cy="-373" rx="75.8212" ry="41.9398"/>
<text text-anchor="middle" x="380.361" y="-386.5" font-family="sans-serif" font-size="15.00" fill="#000000">libsignal&#45;</text>
<text text-anchor="middle" x="380.361" y="-369.5" font-family="sans-serif" font-size="15.00" fill="#000000">service&#45;java</text>
<text text-anchor="middle" x="380.361" y="-352.5" font-family="sans-serif" font-size="15.00" fill="#000000">(fork)</text>
</g>
<!-- serv_java&#45;&gt;serv_java_fork -->
<g id="edge6" class="edge">
<title>serv_java&#45;&gt;serv_java_fork</title>
<path fill="none" stroke="#000000" stroke-dasharray="5,2" d="M308.9876,-657.3502C293.8436,-650.7041 279.8233,-641.0431 271.1442,-627 258.5267,-606.5844 265.2085,-596.2544 271.1442,-573 286.6039,-512.4338 324.5834,-450.4449 351.396,-411.8604"/>
</g>
<!-- signal_android -->
<g id="node27" class="node">
<title>signal_android</title>
<polygon fill="#b3e2cd" stroke="#000000" points="651.0778,-686 510.0778,-686 510.0778,-650 651.0778,-650 651.0778,-686"/>
<text text-anchor="start" x="518.0778" y="-665.5" font-family="sans-serif" font-weight="bold" font-size="15.00" fill="#000000">Signal&#45;Android</text>
</g>
<!-- serv_java&#45;&gt;signal_android -->
<g id="edge9" class="edge">
<title>serv_java&#45;&gt;signal_android</title>
<path fill="none" stroke="#000000" d="M465.2709,-670.3036C480.1922,-670.0055 495.5746,-669.6982 510.0504,-669.409"/>
</g>
<!-- ls_client -->
<g id="node11" class="node">
<title>ls_client</title>
<ellipse fill="#cbd5e8" stroke="#000000" cx="380.361" cy="-600" rx="67.3507" ry="26.7407"/>
<text text-anchor="start" x="340.861" y="-604" font-family="sans-serif" font-weight="bold" font-size="15.00" fill="#000000">libsignal&#45;</text>
<text text-anchor="start" x="355.861" y="-589" font-family="sans-serif" font-weight="bold" font-size="15.00" fill="#000000">client</text>
</g>
<!-- ls_client&#45;&gt;signal_android -->
<g id="edge10" class="edge">
<title>ls_client&#45;&gt;signal_android</title>
<path fill="none" stroke="#000000" d="M431.6618,-617.4234C460.9749,-627.3791 497.68,-639.8453 527.3141,-649.91"/>
</g>
<!-- signal_ios -->
<g id="node28" class="node">
<title>signal_ios</title>
<polygon fill="#b3e2cd" stroke="#000000" points="632.5778,-569 528.5778,-569 528.5778,-533 632.5778,-533 632.5778,-569"/>
<text text-anchor="start" x="536.5778" y="-548.5" font-family="sans-serif" font-weight="bold" font-size="15.00" fill="#000000">Signal&#45;iOS</text>
</g>
<!-- ls_client&#45;&gt;signal_ios -->
<g id="edge11" class="edge">
<title>ls_client&#45;&gt;signal_ios</title>
<path fill="none" stroke="#000000" d="M437.7351,-585.9586C466.2769,-578.9734 500.5243,-570.5919 528.3296,-563.7869"/>
</g>
<!-- signal_desktop -->
<g id="node29" class="node">
<title>signal_desktop</title>
<polygon fill="#b3e2cd" stroke="#000000" points="653.5778,-623 507.5778,-623 507.5778,-587 653.5778,-587 653.5778,-623"/>
<text text-anchor="start" x="515.5778" y="-602.5" font-family="sans-serif" font-weight="bold" font-size="15.00" fill="#000000">Signal&#45;Desktop</text>
</g>
<!-- ls_client&#45;&gt;signal_desktop -->
<g id="edge12" class="edge">
<title>ls_client&#45;&gt;signal_desktop</title>
<path fill="none" stroke="#000000" d="M447.5873,-601.6788C466.7863,-602.1583 487.8005,-602.6831 507.3398,-603.171"/>
</g>
<!-- signal_cli -->
<g id="node13" class="node">
<title>signal_cli</title>
<ellipse fill="#cbd5e8" stroke="#000000" cx="580.5778" cy="-303" rx="58.2405" ry="18"/>
<text text-anchor="middle" x="580.5778" y="-299.5" font-family="sans-serif" font-size="15.00" fill="#000000">signal&#45;cli</text>
</g>
<!-- serv_java_fork&#45;&gt;signal_cli -->
<g id="edge7" class="edge">
<title>serv_java_fork&#45;&gt;signal_cli</title>
<path fill="none" stroke="#000000" d="M444.2613,-350.6591C476.3054,-339.4558 514.0697,-326.2526 541.7143,-316.5875"/>
</g>
<!-- signald -->
<g id="node14" class="node">
<title>signald</title>
<ellipse fill="#cbd5e8" stroke="#000000" cx="580.5778" cy="-497" rx="49.1738" ry="18"/>
<text text-anchor="middle" x="580.5778" y="-493.5" font-family="sans-serif" font-size="15.00" fill="#000000">signald</text>
</g>
<!-- serv_java_fork&#45;&gt;signald -->
<g id="edge8" class="edge">
<title>serv_java_fork&#45;&gt;signald</title>
<path fill="none" stroke="#000000" d="M430.8841,-404.2904C470.6189,-428.8993 524.2971,-462.1438 555.4039,-481.4091"/>
</g>
<!-- scli -->
<g id="node30" class="node">
<title>scli</title>
<polygon fill="#b3e2cd" stroke="#000000" points="781.8975,-294 727.8975,-294 727.8975,-258 781.8975,-258 781.8975,-294"/>
<text text-anchor="middle" x="754.8975" y="-272.5" font-family="sans-serif" font-size="15.00" fill="#000000">scli</text>
</g>
<!-- signal_cli&#45;&gt;scli -->
<g id="edge13" class="edge">
<title>signal_cli&#45;&gt;scli</title>
<path fill="none" stroke="#000000" d="M632.8794,-294.8991C663.9684,-290.0838 702.1415,-284.1713 727.4233,-280.2554"/>
</g>
<!-- siggo -->
<g id="node31" class="node">
<title>siggo</title>
<polygon fill="#b3e2cd" stroke="#000000" points="783.3975,-348 726.3975,-348 726.3975,-312 783.3975,-312 783.3975,-348"/>
<text text-anchor="middle" x="754.8975" y="-326.5" font-family="sans-serif" font-size="15.00" fill="#000000">siggo</text>
</g>
<!-- signal_cli&#45;&gt;siggo -->
<g id="edge14" class="edge">
<title>signal_cli&#45;&gt;siggo</title>
<path fill="none" stroke="#000000" d="M632.8794,-311.1009C663.3667,-315.823 700.6665,-321.6003 725.941,-325.515"/>
</g>
<!-- gurk -->
<g id="node32" class="node">
<title>gurk</title>
<polygon fill="#b3e2cd" stroke="#000000" points="781.8975,-240 727.8975,-240 727.8975,-204 781.8975,-204 781.8975,-240"/>
<text text-anchor="middle" x="754.8975" y="-218.5" font-family="sans-serif" font-size="15.00" fill="#000000">gurk</text>
</g>
<!-- signal_cli&#45;&gt;gurk -->
<g id="edge15" class="edge">
<title>signal_cli&#45;&gt;gurk</title>
<path fill="none" stroke="#000000" stroke-dasharray="1,5" d="M610.8519,-287.3108C632.5791,-276.2213 662.6538,-261.2167 689.5778,-249 701.9813,-243.3719 715.9089,-237.5484 727.7072,-232.7569"/>
</g>
<!-- purple -->
<g id="node18" class="node">
<title>purple</title>
<polygon fill="#fdcdac" stroke="#000000" points="807.2075,-830 781.0525,-848 728.7425,-848 702.5875,-830 728.7425,-812 781.0525,-812 807.2075,-830"/>
<text text-anchor="middle" x="754.8975" y="-826.5" font-family="sans-serif" font-size="15.00" fill="#000000">purple</text>
</g>
<!-- signald&#45;&gt;purple -->
<g id="edge17" class="edge">
<title>signald&#45;&gt;purple</title>
<path fill="none" stroke="#000000" d="M623.7162,-505.8492C634.6159,-509.8527 645.5036,-515.6422 653.5778,-524 674.6227,-545.784 732.5374,-749.5778 749.9085,-811.9487"/>
</g>
<!-- matrix -->
<g id="node19" class="node">
<title>matrix</title>
<polygon fill="#fdcdac" stroke="#000000" points="807.2075,-578 781.0525,-596 728.7425,-596 702.5875,-578 728.7425,-560 781.0525,-560 807.2075,-578"/>
<text text-anchor="middle" x="754.8975" y="-574.5" font-family="sans-serif" font-size="15.00" fill="#000000">matrix</text>
</g>
<!-- signald&#45;&gt;matrix -->
<g id="edge21" class="edge">
<title>signald&#45;&gt;matrix</title>
<path fill="none" stroke="#000000" d="M618.6298,-508.7221C630.163,-512.8923 642.6613,-518.0522 653.5778,-524 671.1402,-533.5689 672.1989,-541.1018 689.5778,-551 699.1742,-556.4657 710.0964,-561.4254 720.2261,-565.5594"/>
</g>
<!-- xmpp -->
<g id="node20" class="node">
<title>xmpp</title>
<polygon fill="#fdcdac" stroke="#000000" points="802.079,-470 778.4882,-488 731.3068,-488 707.716,-470 731.3068,-452 778.4882,-452 802.079,-470"/>
<text text-anchor="middle" x="754.8975" y="-466.5" font-family="sans-serif" font-size="15.00" fill="#000000">xmpp</text>
</g>
<!-- signald&#45;&gt;xmpp -->
<g id="edge30" class="edge">
<title>signald&#45;&gt;xmpp</title>
<path fill="none" stroke="#000000" d="M626.3782,-489.9061C654.1188,-485.6094 689.136,-480.1857 715.6104,-476.0851"/>
</g>
<!-- signal_weechat -->
<g id="node26" class="node">
<title>signal_weechat</title>
<polygon fill="#fdcdac" stroke="#000000" points="820.0375,-400 787.4675,-434.087 722.3275,-434.087 689.7576,-400 722.3275,-365.913 787.4675,-365.913 820.0375,-400"/>
<text text-anchor="middle" x="754.8975" y="-405" font-family="sans-serif" font-size="15.00" fill="#000000">signal&#45;</text>
<text text-anchor="middle" x="754.8975" y="-388" font-family="sans-serif" font-size="15.00" fill="#000000">weechat</text>
</g>
<!-- signald&#45;&gt;signal_weechat -->
<g id="edge33" class="edge">
<title>signald&#45;&gt;signal_weechat</title>
<path fill="none" stroke="#000000" d="M607.8152,-481.8438C635.7762,-466.2849 679.6836,-441.8527 712.2541,-423.7289"/>
</g>
<!-- Pyre_Qt -->
<g id="node34" class="node">
<title>Pyre_Qt</title>
<polygon fill="#b3e2cd" stroke="#000000" points="791.8975,-542 717.8975,-542 717.8975,-506 791.8975,-506 791.8975,-542"/>
<text text-anchor="middle" x="754.8975" y="-520.5" font-family="sans-serif" font-size="15.00" fill="#000000">Pyre&#45;Qt</text>
</g>
<!-- signald&#45;&gt;Pyre_Qt -->
<g id="edge16" class="edge">
<title>signald&#45;&gt;Pyre_Qt</title>
<path fill="none" stroke="#000000" d="M626.3782,-504.0939C654.8249,-508.5 690.9234,-514.0912 717.6152,-518.2254"/>
</g>
<!-- nanu_c -->
<g id="node15" class="node">
<title>nanu_c</title>
<ellipse fill="#cbd5e8" stroke="#000000" cx="380.361" cy="-747" rx="67.7647" ry="29.8983"/>
<text text-anchor="middle" x="380.361" y="-752" font-family="sans-serif" font-size="15.00" fill="#000000">nanu&#45;c/</text>
<text text-anchor="middle" x="380.361" y="-735" font-family="sans-serif" font-size="15.00" fill="#000000">textsecure</text>
</g>
<!-- axolotl -->
<g id="node33" class="node">
<title>axolotl</title>
<polygon fill="#b3e2cd" stroke="#000000" points="614.0778,-765 547.0778,-765 547.0778,-729 614.0778,-729 614.0778,-765"/>
<text text-anchor="middle" x="580.5778" y="-743.5" font-family="sans-serif" font-size="15.00" fill="#000000">axolotl</text>
</g>
<!-- nanu_c&#45;&gt;axolotl -->
<g id="edge43" class="edge">
<title>nanu_c&#45;&gt;axolotl</title>
<path fill="none" stroke="#000000" d="M448.4246,-747C481.6408,-747 520.1185,-747 546.958,-747"/>
</g>
<!-- rust_libs -->
<g id="node16" class="node">
<title>rust_libs</title>
<ellipse fill="#cbd5e8" stroke="#000000" cx="380.361" cy="-199" rx="53.5119" ry="18"/>
<text text-anchor="middle" x="380.361" y="-195.5" font-family="sans-serif" font-size="15.00" fill="#000000">rust&#45;libs</text>
</g>
<!-- rust_libs&#45;&gt;gurk -->
<g id="edge44" class="edge">
<title>rust_libs&#45;&gt;gurk</title>
<path fill="none" stroke="#000000" d="M433.2286,-202.2466C514.0874,-207.212 665.6025,-216.5165 727.498,-220.3174"/>
</g>
<!-- whisperfish -->
<g id="node35" class="node">
<title>whisperfish</title>
<polygon fill="#b3e2cd" stroke="#000000" points="631.5778,-194 529.5778,-194 529.5778,-158 631.5778,-158 631.5778,-194"/>
<text text-anchor="middle" x="580.5778" y="-172.5" font-family="sans-serif" font-size="15.00" fill="#000000">whisperfish</text>
</g>
<!-- rust_libs&#45;&gt;whisperfish -->
<g id="edge45" class="edge">
<title>rust_libs&#45;&gt;whisperfish</title>
<path fill="none" stroke="#000000" d="M431.143,-193.1664C461.2645,-189.7062 499.3292,-185.3335 529.5021,-181.8673"/>
</g>
<!-- dotnet -->
<g id="node17" class="node">
<title>dotnet</title>
<ellipse fill="#cbd5e8" stroke="#000000" cx="380.361" cy="-824" rx="91.4341" ry="29.8983"/>
<text text-anchor="middle" x="380.361" y="-829" font-family="sans-serif" font-size="15.00" fill="#000000">libsignal&#45;</text>
<text text-anchor="middle" x="380.361" y="-812" font-family="sans-serif" font-size="15.00" fill="#000000">service&#45;dotnet </text>
</g>
<!-- windows -->
<g id="node36" class="node">
<title>windows</title>
<polygon fill="#b3e2cd" stroke="#000000" points="648.5778,-842 512.5778,-842 512.5778,-806 648.5778,-806 648.5778,-842"/>
<text text-anchor="middle" x="580.5778" y="-820.5" font-family="sans-serif" font-size="15.00" fill="#000000">Signal&#45;Windows</text>
</g>
<!-- dotnet&#45;&gt;windows -->
<g id="edge46" class="edge">
<title>dotnet&#45;&gt;windows</title>
<path fill="none" stroke="#000000" d="M471.6809,-824C485.3978,-824 499.3366,-824 512.4563,-824"/>
</g>
<!-- bitlbee -->
<g id="node25" class="node">
<title>bitlbee</title>
<polygon fill="#fdcdac" stroke="#000000" points="980.8483,-830 953.2339,-848 898.005,-848 870.3905,-830 898.005,-812 953.2339,-812 980.8483,-830"/>
<text text-anchor="middle" x="925.6194" y="-826.5" font-family="sans-serif" font-size="15.00" fill="#000000">bitlbee</text>
</g>
<!-- purple&#45;&gt;bitlbee -->
<g id="edge35" class="edge">
<title>purple&#45;&gt;bitlbee</title>
<path fill="none" stroke="#000000" d="M807.5128,-830C827.4013,-830 850.0852,-830 870.2213,-830"/>
</g>
<!-- purple_clients_virt -->
<g id="node45" class="node">
<title>purple_clients_virt</title>
<ellipse fill="#000000" stroke="#000000" cx="1109.0216" cy="-875" rx="1.8" ry="1.8"/>
</g>
<!-- purple&#45;&gt;purple_clients_virt -->
<g id="edge18" class="edge">
<title>purple&#45;&gt;purple_clients_virt</title>
<path fill="none" stroke="#000000" d="M791.1121,-841.4365C810.275,-847.0318 834.3126,-853.3356 856.2172,-857 959.5037,-874.2789 1089.2455,-874.9876 1106.9798,-875.0018"/>
</g>
<!-- matrix_weechat -->
<g id="node21" class="node">
<title>matrix_weechat</title>
<polygon fill="#fdcdac" stroke="#000000" points="994.924,-646 960.2717,-680.087 890.9672,-680.087 856.3149,-646 890.9672,-611.913 960.2717,-611.913 994.924,-646"/>
<text text-anchor="middle" x="925.6194" y="-651" font-family="sans-serif" font-size="15.00" fill="#000000">weechat&#45;</text>
<text text-anchor="middle" x="925.6194" y="-634" font-family="sans-serif" font-size="15.00" fill="#000000">matrix</text>
</g>
<!-- matrix&#45;&gt;matrix_weechat -->
<g id="edge26" class="edge">
<title>matrix&#45;&gt;matrix_weechat</title>
<path fill="none" stroke="#000000" d="M788.2197,-591.2725C813.2554,-601.2444 847.9485,-615.063 876.2091,-626.3195"/>
</g>
<!-- matrix_xmpp -->
<g id="node22" class="node">
<title>matrix_xmpp</title>
<polygon fill="#fdcdac" stroke="#000000" points="983.562,-546 954.5907,-594.3472 896.6482,-594.3472 867.6769,-546 896.6482,-497.6528 954.5907,-497.6528 983.562,-546"/>
<text text-anchor="middle" x="925.6194" y="-559.5" font-family="sans-serif" font-size="15.00" fill="#000000">matrix&#45;</text>
<text text-anchor="middle" x="925.6194" y="-542.5" font-family="sans-serif" font-size="15.00" fill="#000000">xmpp&#45;</text>
<text text-anchor="middle" x="925.6194" y="-525.5" font-family="sans-serif" font-size="15.00" fill="#000000">bridge</text>
</g>
<!-- matrix&#45;&gt;matrix_xmpp -->
<g id="edge28" class="edge">
<title>matrix&#45;&gt;matrix_xmpp</title>
<path fill="none" stroke="#000000" d="M796.2245,-570.2537C819.415,-565.9069 848.5765,-560.4409 873.3424,-555.7988"/>
</g>
<!-- matrix_irc -->
<g id="node23" class="node">
<title>matrix_irc</title>
<polygon fill="#fdcdac" stroke="#000000" points="983.562,-746 954.5907,-794.3472 896.6482,-794.3472 867.6769,-746 896.6482,-697.6528 954.5907,-697.6528 983.562,-746"/>
<text text-anchor="middle" x="925.6194" y="-759.5" font-family="sans-serif" font-size="15.00" fill="#000000">matrix&#45;</text>
<text text-anchor="middle" x="925.6194" y="-742.5" font-family="sans-serif" font-size="15.00" fill="#000000">irc&#45;</text>
<text text-anchor="middle" x="925.6194" y="-725.5" font-family="sans-serif" font-size="15.00" fill="#000000">bridge</text>
</g>
<!-- matrix&#45;&gt;matrix_irc -->
<g id="edge37" class="edge">
<title>matrix&#45;&gt;matrix_irc</title>
<path fill="none" stroke="#000000" d="M769.9507,-596.0314C789.118,-618.6188 823.6658,-658.1062 856.2172,-689 865.4909,-697.8014 875.9442,-706.8126 885.8701,-714.9962"/>
</g>
<!-- matrix_clients_virt -->
<g id="node46" class="node">
<title>matrix_clients_virt</title>
<ellipse fill="#000000" stroke="#000000" cx="925.6194" cy="-433" rx="1.8" ry="1.8"/>
</g>
<!-- matrix&#45;&gt;matrix_clients_virt -->
<g id="edge22" class="edge">
<title>matrix&#45;&gt;matrix_clients_virt</title>
<path fill="none" stroke="#000000" d="M792.2042,-567.4215C802.061,-563.3949 812.1796,-558.0261 820.2172,-551 844.2074,-530.0291 835.4722,-513.1858 856.2172,-489 878.7958,-462.6765 914.9979,-439.5441 923.6957,-434.1723"/>
</g>
<!-- xmpp_weechat -->
<g id="node24" class="node">
<title>xmpp_weechat</title>
<polygon fill="#fdcdac" stroke="#000000" points="1178.3262,-574 1143.6739,-622.3472 1074.3694,-622.3472 1039.7171,-574 1074.3694,-525.6528 1143.6739,-525.6528 1178.3262,-574"/>
<text text-anchor="middle" x="1109.0216" y="-587.5" font-family="sans-serif" font-size="15.00" fill="#000000">weechat&#45;</text>
<text text-anchor="middle" x="1109.0216" y="-570.5" font-family="sans-serif" font-size="15.00" fill="#000000">xmpp&#45;</text>
<text text-anchor="middle" x="1109.0216" y="-553.5" font-family="sans-serif" font-size="15.00" fill="#000000">script</text>
</g>
<!-- xmpp&#45;&gt;xmpp_weechat -->
<g id="edge31" class="edge">
<title>xmpp&#45;&gt;xmpp_weechat</title>
<path fill="none" stroke="#000000" d="M797.293,-466.1858C846.5771,-463.3511 929.5209,-463.5945 995.0216,-489 1013.9197,-496.3299 1014.837,-504.7967 1031.0216,-517 1041.3334,-524.7751 1052.4986,-533.0298 1063.071,-540.7721"/>
</g>
<!-- weechat -->
<g id="node37" class="node">
<title>weechat</title>
<polygon fill="#b3e2cd" stroke="#000000" points="1343.0216,-631 1259.0216,-631 1259.0216,-595 1343.0216,-595 1343.0216,-631"/>
<text text-anchor="middle" x="1301.0216" y="-609.5" font-family="sans-serif" font-size="15.00" fill="#000000">WeeChat</text>
</g>
<!-- matrix_weechat&#45;&gt;weechat -->
<g id="edge27" class="edge">
<title>matrix_weechat&#45;&gt;weechat</title>
<path fill="none" stroke="#000000" d="M992.9266,-643.9751C1045.8092,-641.941 1121.2597,-638.0609 1187.0216,-631 1210.9285,-628.4331 1237.4715,-624.3176 1258.9263,-620.6693"/>
</g>
<!-- matrix_xmpp&#45;&gt;xmpp_weechat -->
<g id="edge29" class="edge">
<title>matrix_xmpp&#45;&gt;xmpp_weechat</title>
<path fill="none" stroke="#000000" d="M979.16,-554.174C1000.2002,-557.3862 1024.5026,-561.0965 1046.3529,-564.4324"/>
</g>
<!-- irc_clients_virt -->
<g id="node47" class="node">
<title>irc_clients_virt</title>
<ellipse fill="#000000" stroke="#000000" cx="1109.0216" cy="-748" rx="1.8" ry="1.8"/>
</g>
<!-- matrix_irc&#45;&gt;irc_clients_virt -->
<g id="edge38" class="edge">
<title>matrix_irc&#45;&gt;irc_clients_virt</title>
<path fill="none" stroke="#000000" d="M983.3973,-746.6301C1032.1162,-747.1613 1095.706,-747.8548 1107.2009,-747.9801"/>
</g>
<!-- xmpp_weechat&#45;&gt;weechat -->
<g id="edge32" class="edge">
<title>xmpp_weechat&#45;&gt;weechat</title>
<path fill="none" stroke="#000000" d="M1169.7716,-586.3398C1198.7756,-592.2313 1232.7645,-599.1353 1258.8864,-604.4413"/>
</g>
<!-- bitlbee&#45;&gt;irc_clients_virt -->
<g id="edge36" class="edge">
<title>bitlbee&#45;&gt;irc_clients_virt</title>
<path fill="none" stroke="#000000" d="M961.145,-816.7958C972.0833,-812.5655 984.1143,-807.7441 995.0216,-803 1041.3691,-782.8412 1096.4556,-754.5098 1107.167,-748.9629"/>
</g>
<!-- signal_weechat&#45;&gt;weechat -->
<g id="edge34" class="edge">
<title>signal_weechat&#45;&gt;weechat</title>
<path fill="none" stroke="#000000" d="M798.7169,-377.5502C881.9276,-338.3862 1065.3527,-269.0109 1187.0216,-349 1273.7914,-406.0452 1294.8181,-544.6732 1299.6526,-594.6532"/>
</g>
<!-- Pidgin -->
<g id="node38" class="node">
<title>Pidgin</title>
<polygon fill="#b3e2cd" stroke="#000000" points="1333.0216,-832 1269.0216,-832 1269.0216,-796 1333.0216,-796 1333.0216,-832"/>
<text text-anchor="middle" x="1301.0216" y="-810.5" font-family="sans-serif" font-size="15.00" fill="#000000">Pidgin</text>
</g>
<!-- purple_ellipsis -->
<g id="node39" class="node">
<title>purple_ellipsis</title>
<polygon fill="#b3e2cd" stroke="#000000" points="1379.0216,-896 1223.0216,-896 1223.0216,-854 1379.0216,-854 1379.0216,-896"/>
<text text-anchor="middle" x="1301.0216" y="-880" font-family="sans-serif" font-size="15.00" fill="#000000">...</text>
<text text-anchor="middle" x="1301.0216" y="-863" font-family="sans-serif" font-size="15.00" fill="#000000">(any purple client)</text>
</g>
<!-- Element -->
<g id="node40" class="node">
<title>Element</title>
<polygon fill="#b3e2cd" stroke="#000000" points="1148.5216,-448 1069.5216,-448 1069.5216,-412 1148.5216,-412 1148.5216,-448"/>
<text text-anchor="middle" x="1109.0216" y="-426.5" font-family="sans-serif" font-size="15.00" fill="#000000">Element</text>
</g>
<!-- FluffyChat -->
<g id="node41" class="node">
<title>FluffyChat</title>
<polygon fill="#b3e2cd" stroke="#000000" points="1156.5216,-394 1061.5216,-394 1061.5216,-358 1156.5216,-358 1156.5216,-394"/>
<text text-anchor="middle" x="1109.0216" y="-372.5" font-family="sans-serif" font-size="15.00" fill="#000000">FluffyChat</text>
</g>
<!-- matrix_ellipsis -->
<g id="node42" class="node">
<title>matrix_ellipsis</title>
<polygon fill="#b3e2cd" stroke="#000000" points="1187.0216,-508 1031.0216,-508 1031.0216,-466 1187.0216,-466 1187.0216,-508"/>
<text text-anchor="middle" x="1109.0216" y="-492" font-family="sans-serif" font-size="15.00" fill="#000000">...</text>
<text text-anchor="middle" x="1109.0216" y="-475" font-family="sans-serif" font-size="15.00" fill="#000000">(any matrix client)</text>
</g>
<!-- irssi -->
<g id="node43" class="node">
<title>irssi</title>
<polygon fill="#b3e2cd" stroke="#000000" points="1328.0216,-710 1274.0216,-710 1274.0216,-674 1328.0216,-674 1328.0216,-710"/>
<text text-anchor="middle" x="1301.0216" y="-688.5" font-family="sans-serif" font-size="15.00" fill="#000000">irssi</text>
</g>
<!-- irc_ellipsis -->
<g id="node44" class="node">
<title>irc_ellipsis</title>
<polygon fill="#b3e2cd" stroke="#000000" points="1367.0216,-770 1235.0216,-770 1235.0216,-728 1367.0216,-728 1367.0216,-770"/>
<text text-anchor="middle" x="1301.0216" y="-754" font-family="sans-serif" font-size="15.00" fill="#000000">...</text>
<text text-anchor="middle" x="1301.0216" y="-737" font-family="sans-serif" font-size="15.00" fill="#000000">(any IRC client)</text>
</g>
<!-- purple_clients_virt&#45;&gt;Pidgin -->
<g id="edge19" class="edge">
<title>purple_clients_virt&#45;&gt;Pidgin</title>
<path fill="none" stroke="#000000" d="M1111.1779,-874.3149C1126.4214,-869.4719 1218.7758,-840.1302 1268.8311,-824.2272"/>
</g>
<!-- purple_clients_virt&#45;&gt;purple_ellipsis -->
<g id="edge20" class="edge">
<title>purple_clients_virt&#45;&gt;purple_ellipsis</title>
<path fill="none" stroke="#000000" d="M1111.1779,-875C1122.4252,-875 1175.6519,-875 1222.8933,-875"/>
</g>
<!-- matrix_clients_virt&#45;&gt;Element -->
<g id="edge23" class="edge">
<title>matrix_clients_virt&#45;&gt;Element</title>
<path fill="none" stroke="#000000" d="M927.6791,-432.9663C941.3743,-432.7423 1020.2283,-431.4524 1069.3391,-430.6491"/>
</g>
<!-- matrix_clients_virt&#45;&gt;FluffyChat -->
<g id="edge24" class="edge">
<title>matrix_clients_virt&#45;&gt;FluffyChat</title>
<path fill="none" stroke="#000000" d="M927.6791,-432.3599C940.6659,-428.3237 1012.2453,-406.0773 1061.4928,-390.7716"/>
</g>
<!-- matrix_clients_virt&#45;&gt;matrix_ellipsis -->
<g id="edge25" class="edge">
<title>matrix_clients_virt&#45;&gt;matrix_ellipsis</title>
<path fill="none" stroke="#000000" d="M927.6791,-433.6064C938.6589,-436.8393 991.5202,-452.4035 1037.3585,-465.8999"/>
</g>
<!-- irc_clients_virt&#45;&gt;weechat -->
<g id="edge39" class="edge">
<title>irc_clients_virt&#45;&gt;weechat</title>
<path fill="none" stroke="#000000" d="M1110.611,-746.8046C1120.6577,-739.256 1176.4242,-697.475 1223.0216,-665 1239.5785,-653.4611 1258.3962,-640.9003 1273.4,-631.0148"/>
</g>
<!-- irc_clients_virt&#45;&gt;Pidgin -->
<g id="edge40" class="edge">
<title>irc_clients_virt&#45;&gt;Pidgin</title>
<path fill="none" stroke="#000000" d="M1111.1779,-748.7412C1126.4214,-753.9812 1218.7758,-785.728 1268.8311,-802.9345"/>
</g>
<!-- irc_clients_virt&#45;&gt;irssi -->
<g id="edge41" class="edge">
<title>irc_clients_virt&#45;&gt;irssi</title>
<path fill="none" stroke="#000000" d="M1111.1779,-747.3711C1126.957,-742.7689 1225.3607,-714.0678 1273.9453,-699.8973"/>
</g>
<!-- irc_clients_virt&#45;&gt;irc_ellipsis -->
<g id="edge42" class="edge">
<title>irc_clients_virt&#45;&gt;irc_ellipsis</title>
<path fill="none" stroke="#000000" d="M1111.1779,-748.0112C1123.3933,-748.0749 1185.1265,-748.3964 1234.9293,-748.6558"/>
</g>
</g>
</svg>
